<svg width="46" height="60" viewBox="0 0 46 60" fill="none" xmlns="http://www.w3.org/2000/svg">
<path d="M45.8801 7.0536V14.1199H42.3533V17.6467H31.7666V14.1199H28.2334V10.5867H21.1798V14.1199H17.6467V17.6467H21.1798V21.1735H24.7066V24.7003H28.2334V31.7666H24.7066V35.287H21.1798V38.8202H14.1199V42.3533H10.5867V45.8801H14.1199V49.4069H21.1798V45.8801H24.7066V42.3533H28.2334V38.8202H31.7666V35.287H35.2934V31.7666H42.3533V35.287H45.8801V45.8801H42.3533V49.4069H38.8202V52.9337H31.7666V56.4669H24.7066V60H7.06629V56.4669H3.53314V49.4069H0V38.8202H3.53314V35.287H7.06629V31.7666H17.6467V28.2334H14.1199V24.7003H10.5867V21.1735H7.06629V14.1199H10.5867V7.0536H14.1199V3.53314H21.1798V0H38.8202V3.53314H42.3533V7.0536H45.8801Z" fill="white"/>
</svg>
